<svg width="86" height="32" viewBox="0 0 86 32" fill="none" xmlns="http://www.w3.org/2000/svg">
<path d="M11.7773 6.85547C11.6836 6.97266 11.1094 6.98437 10.0547 6.89062C9 6.79688 7.33594 6.64453 5.0625 6.43359C5.0625 7.20703 5.0625 8.15625 5.0625 9.28125C5.08594 10.4062 5.08594 11.6133 5.0625 12.9023C6.82031 13.0664 8.19141 13.2188 9.17578 13.3594C10.1602 13.5 10.6758 13.5938 10.7227 13.6406C10.8164 13.7344 10.8516 13.9336 10.8281 14.2383C10.8047 14.5195 10.7461 14.8359 10.6523 15.1875C10.5586 15.5391 10.4414 15.8789 10.3008 16.207C10.1602 16.5117 10.0195 16.7109 9.87891 16.8047C9.76172 16.8516 9.29297 16.9219 8.47266 17.0156C7.67578 17.0859 6.53906 17.1562 5.0625 17.2266C5.0625 18.2344 5.05078 19.2305 5.02734 20.2148C5.02734 21.1992 5.01562 22.1016 4.99219 22.9219C7.26562 22.9453 8.91797 22.9922 9.94922 23.0625C11.0039 23.1094 11.5781 23.1797 11.6719 23.2734C11.7656 23.3906 11.7656 23.6133 11.6719 23.9414C11.6016 24.2695 11.4727 24.6211 11.2852 24.9961C11.1211 25.3477 10.9336 25.6992 10.7227 26.0508C10.5352 26.4023 10.3828 26.6484 10.2656 26.7891C10.2188 26.8359 9.9375 26.8594 9.42188 26.8594C8.90625 26.8359 8.33203 26.8008 7.69922 26.7539C7.06641 26.707 6.45703 26.6602 5.87109 26.6133C5.28516 26.543 4.89844 26.4844 4.71094 26.4375C4.35938 26.3203 3.98438 26.1328 3.58594 25.875C3.1875 25.5938 2.87109 25.2422 2.63672 24.8203C2.58984 24.7031 2.50781 24.3164 2.39062 23.6602C2.29688 22.9805 2.19141 22.125 2.07422 21.0938C1.95703 20.0625 1.83984 18.9023 1.72266 17.6133C1.60547 16.3242 1.48828 15.0117 1.37109 13.6758C1.25391 12.3398 1.14844 11.0273 1.05469 9.73828C0.960938 8.44922 0.878906 7.28906 0.808594 6.25781C0.761719 5.20312 0.738281 4.33594 0.738281 3.65625C0.738281 2.95312 0.773438 2.53125 0.84375 2.39062C0.914062 2.20312 1.24219 2.0625 1.82812 1.96875C2.41406 1.875 3.11719 1.81641 3.9375 1.79297C4.75781 1.74609 5.63672 1.73438 6.57422 1.75781C7.53516 1.78125 8.42578 1.82812 9.24609 1.89844C10.0664 1.94531 10.7578 2.01563 11.3203 2.10938C11.8828 2.17969 12.1992 2.25 12.2695 2.32031C12.3633 2.4375 12.4102 2.70703 12.4102 3.12891C12.4336 3.55078 12.4102 4.01953 12.3398 4.53516C12.293 5.02734 12.2109 5.50781 12.0938 5.97656C12 6.42187 11.8945 6.71484 11.7773 6.85547ZM21.2695 8.19141C21.3164 8.26172 21.3867 8.58984 21.4805 9.17578C21.5742 9.76172 21.668 10.4883 21.7617 11.3555C21.8789 12.2227 21.9844 13.1602 22.0781 14.168C22.1953 15.1758 22.3008 16.1367 22.3945 17.0508C22.5117 17.9648 22.6055 18.7852 22.6758 19.5117C22.7461 20.2383 22.8047 20.7305 22.8516 20.9883C22.9219 21.4102 23.0039 21.8789 23.0977 22.3945C23.1914 22.8867 23.2734 23.3672 23.3438 23.8359C23.4141 24.2812 23.4609 24.668 23.4844 24.9961C23.5312 25.3242 23.5195 25.5234 23.4492 25.5938C23.4023 25.6641 23.2148 25.6875 22.8867 25.6641C22.5586 25.6172 22.1953 25.5469 21.7969 25.4531C21.4219 25.3359 21.0586 25.207 20.707 25.0664C20.3789 24.9023 20.168 24.75 20.0742 24.6094C19.9805 24.4922 19.8867 24.3164 19.793 24.082C19.7227 23.8477 19.6289 23.4375 19.5117 22.8516C19.2539 23.2031 18.9727 23.5781 18.668 23.9766C18.3867 24.3516 18.1055 24.7031 17.8242 25.0312C17.543 25.3359 17.2852 25.582 17.0508 25.7695C16.8164 25.957 16.6406 26.0508 16.5234 26.0508C16.3359 26.0508 16.0547 25.8633 15.6797 25.4883C15.3047 25.0898 14.9297 24.6445 14.5547 24.1523C14.1797 23.6602 13.8398 23.1914 13.5352 22.7461C13.2305 22.3008 13.0664 22.0078 13.043 21.8672C12.9961 21.7266 12.9727 21.3398 12.9727 20.707C12.9961 20.0742 13.0195 19.3711 13.043 18.5977C13.0898 17.8008 13.1367 17.0156 13.1836 16.2422C13.2305 15.4453 13.2773 14.8125 13.3242 14.3438C13.3711 13.875 13.418 13.3594 13.4648 12.7969C13.5352 12.2109 13.6055 11.6719 13.6758 11.1797C13.7461 10.6641 13.8047 10.2188 13.8516 9.84375C13.9219 9.46875 13.9805 9.24609 14.0273 9.17578C14.0742 9.10547 14.2031 9.07031 14.4141 9.07031C14.6484 9.04688 14.8828 9.05859 15.1172 9.10547C15.375 9.12891 15.6094 9.1875 15.8203 9.28125C16.0312 9.35156 16.1719 9.44531 16.2422 9.5625C16.2891 9.65625 16.3125 9.96094 16.3125 10.4766C16.3359 10.9688 16.3477 11.5781 16.3477 12.3047C16.3477 13.0078 16.3477 13.7812 16.3477 14.625C16.3477 15.4453 16.3359 16.2188 16.3125 16.9453C16.3125 17.6484 16.3008 18.2578 16.2773 18.7734C16.2773 19.2656 16.2773 19.5586 16.2773 19.6523C16.2773 19.8398 16.3828 20.2031 16.5938 20.7422C16.8281 21.2812 17.0625 21.7969 17.2969 22.2891L19.125 20.1094C19.1016 19.6875 19.0781 19.1484 19.0547 18.4922C19.0547 17.8359 19.043 17.1445 19.0195 16.418C18.9961 15.6914 18.9727 14.9531 18.9492 14.2031C18.9258 13.4531 18.9141 12.7734 18.9141 12.1641C18.9141 11.5547 18.9141 11.0508 18.9141 10.6523C18.9141 10.2539 18.9258 10.0195 18.9492 9.94922C19.0195 9.80859 19.1602 9.62109 19.3711 9.38672C19.582 9.15234 19.8164 8.92969 20.0742 8.71875C20.332 8.50781 20.5664 8.34375 20.7773 8.22656C21.0117 8.10938 21.1758 8.09766 21.2695 8.19141ZM32.5195 7.83984C32.707 7.95703 32.8828 8.19141 33.0469 8.54297C33.2344 8.87109 33.3984 9.25781 33.5391 9.70312C33.7031 10.125 33.832 10.582 33.9258 11.0742C34.043 11.5664 34.1367 12.0234 34.207 12.4453C34.3008 12.8672 34.3594 13.2305 34.3828 13.5352C34.4062 13.8164 34.4062 13.9922 34.3828 14.0625C34.3359 14.1562 34.1953 14.25 33.9609 14.3438C33.75 14.4375 33.4336 14.543 33.0117 14.6602C32.5898 14.7773 32.0039 14.9062 31.2539 15.0469C31.207 13.7578 31.1133 12.7852 30.9727 12.1289C30.832 11.4492 30.6797 10.9688 30.5156 10.6875C30.3281 10.3594 30.1289 10.1953 29.918 10.1953C29.707 10.2891 29.5195 10.4062 29.3555 10.5469C29.1914 10.6641 29.0508 10.793 28.9336 10.9336C28.793 11.0977 28.6641 11.2734 28.5469 11.4609C28.5 11.5312 28.4531 11.6953 28.4062 11.9531C28.3594 12.2109 28.3125 12.5977 28.2656 13.1133C28.2656 13.2773 28.2539 13.6172 28.2305 14.1328C28.2305 14.6484 28.2188 15.2461 28.1953 15.9258C28.1953 16.6055 28.1836 17.3203 28.1602 18.0703C28.1602 18.8203 28.1484 19.5234 28.125 20.1797C28.125 20.8125 28.1133 21.3516 28.0898 21.7969C28.0898 22.2422 28.0781 22.5 28.0547 22.5703C28.0078 22.6875 27.8906 22.8516 27.7031 23.0625C27.5156 23.2734 27.3047 23.4727 27.0703 23.6602C26.8359 23.8242 26.6133 23.9648 26.4023 24.082C26.1914 24.1758 26.0508 24.1641 25.9805 24.0469C25.9102 23.9766 25.8398 23.6719 25.7695 23.1328C25.6992 22.5938 25.6172 21.9375 25.5234 21.1641C25.4531 20.3672 25.3711 19.5 25.2773 18.5625C25.1836 17.625 25.1016 16.7227 25.0312 15.8555C24.9609 14.9883 24.9023 14.2148 24.8555 13.5352C24.8086 12.832 24.7734 12.3281 24.75 12.0234C24.7266 11.5781 24.7031 11.0859 24.6797 10.5469C24.6562 10.0078 24.6328 9.50391 24.6094 9.03516C24.6094 8.54297 24.6094 8.12109 24.6094 7.76953C24.6328 7.39453 24.6797 7.17188 24.75 7.10156C24.7969 7.03125 24.9492 7.01953 25.207 7.06641C25.4883 7.08984 25.7812 7.16016 26.0859 7.27734C26.4141 7.37109 26.7188 7.5 27 7.66406C27.2812 7.82812 27.4688 7.98047 27.5625 8.12109C27.6328 8.23828 27.7031 8.41406 27.7734 8.64844C28.2188 8.41406 28.6406 8.20312 29.0391 8.01562C29.4609 7.80469 29.8594 7.65234 30.2344 7.55859C30.6328 7.46484 31.0195 7.44141 31.3945 7.48828C31.7695 7.51172 32.1445 7.62891 32.5195 7.83984ZM43.1719 7.76953C43.3359 7.91016 43.4883 8.17969 43.6289 8.57812C43.793 8.97656 43.9336 9.45703 44.0508 10.0195C44.168 10.582 44.2734 11.1914 44.3672 11.8477C44.4609 12.5039 44.543 13.1484 44.6133 13.7812C44.6836 14.4141 44.7305 15.0117 44.7539 15.5742C44.8008 16.1133 44.8359 16.5586 44.8594 16.9102C44.8828 17.332 44.8945 17.7773 44.8945 18.2461C44.918 18.6914 44.918 19.125 44.8945 19.5469C44.8945 19.9453 44.8711 20.3086 44.8242 20.6367C44.8008 20.9648 44.7539 21.2109 44.6836 21.375C44.543 21.7266 44.2969 21.9727 43.9453 22.1133C43.6172 22.2305 43.2422 22.3125 42.8203 22.3594C42.6094 22.3828 42.2461 22.3945 41.7305 22.3945C41.2383 22.3711 40.6992 22.3477 40.1133 22.3242C39.5508 22.2773 39.0117 22.2305 38.4961 22.1836C37.9805 22.1367 37.5938 22.0898 37.3359 22.043C36.8203 21.9258 36.4453 21.7734 36.2109 21.5859C36 21.3984 35.7891 21.1289 35.5781 20.7773C35.5078 20.6367 35.4492 20.2852 35.4023 19.7227C35.3555 19.1367 35.3203 18.4453 35.2969 17.6484C35.2969 16.8281 35.3086 15.9492 35.332 15.0117C35.3555 14.0742 35.3906 13.1836 35.4375 12.3398C35.5078 11.4961 35.5781 10.7578 35.6484 10.125C35.7422 9.49219 35.8594 9.07031 36 8.85938C36.2344 8.53125 36.6328 8.22656 37.1953 7.94531C37.7812 7.66406 38.3086 7.44141 38.7773 7.27734C39.0117 7.20703 39.3164 7.16016 39.6914 7.13672C40.0898 7.08984 40.5 7.08984 40.9219 7.13672C41.3672 7.16016 41.7891 7.23047 42.1875 7.34766C42.5859 7.44141 42.9141 7.58203 43.1719 7.76953ZM41.2031 18.668C41.25 18.5742 41.2969 18.293 41.3438 17.8242C41.4141 17.332 41.4609 16.7461 41.4844 16.0664C41.5312 15.3867 41.5547 14.6602 41.5547 13.8867C41.5781 13.1133 41.5898 12.3984 41.5898 11.7422C41.5898 11.0859 41.5664 10.5352 41.5195 10.0898C41.4727 9.62109 41.4141 9.35156 41.3438 9.28125C41.2266 9.1875 41.0508 9.15234 40.8164 9.17578C40.6055 9.17578 40.3828 9.21094 40.1484 9.28125C39.9141 9.32812 39.7031 9.39844 39.5156 9.49219C39.3281 9.5625 39.1992 9.63281 39.1289 9.70312C38.8242 9.96094 38.6602 10.3828 38.6367 10.9688C38.6367 11.1328 38.6133 11.6016 38.5664 12.375C38.543 13.125 38.5312 13.9453 38.5312 14.8359C38.5312 15.7031 38.543 16.5117 38.5664 17.2617C38.6133 18.0117 38.6953 18.4688 38.8125 18.6328C38.9297 18.7969 39.0938 18.9258 39.3047 19.0195C39.5391 19.0898 39.7734 19.125 40.0078 19.125C40.2656 19.125 40.5 19.0898 40.7109 19.0195C40.9453 18.9258 41.1094 18.8086 41.2031 18.668ZM57.9727 1.05469C58.043 1.17188 58.0781 1.44141 58.0781 1.86328C58.1016 2.28516 58.0898 2.74219 58.043 3.23438C57.9961 3.72656 57.9258 4.20703 57.832 4.67578C57.7617 5.12109 57.6797 5.41406 57.5859 5.55469C57.5156 5.67188 57.082 5.71875 56.2852 5.69531C55.5117 5.64844 54.3984 5.53125 52.9453 5.34375C52.9453 6.25781 52.9336 7.42969 52.9102 8.85938C52.8867 10.2891 52.8398 11.8242 52.7695 13.4648C52.7227 15.082 52.6641 16.7109 52.5938 18.3516C52.5469 19.9922 52.4883 21.4805 52.418 22.8164C52.3477 24.1523 52.2773 25.2422 52.207 26.0859C52.1367 26.9297 52.0781 27.375 52.0312 27.4219C51.9375 27.4922 51.7734 27.457 51.5391 27.3164C51.3281 27.1992 51.1055 27.0234 50.8711 26.7891C50.6367 26.5547 50.4141 26.3203 50.2031 26.0859C50.0156 25.8281 49.8867 25.6055 49.8164 25.418C49.793 25.3242 49.7461 24.8672 49.6758 24.0469C49.6289 23.2266 49.5703 22.1953 49.5 20.9531C49.4297 19.7109 49.3477 18.3281 49.2539 16.8047C49.1602 15.2812 49.0664 13.7695 48.9727 12.2695C48.8789 10.7695 48.7734 9.36328 48.6562 8.05078C48.5625 6.73828 48.4805 5.64844 48.4102 4.78125C46.8164 4.61719 45.668 4.45312 44.9648 4.28906C44.2617 4.125 43.8633 3.99609 43.7695 3.90234C43.6758 3.80859 43.582 3.63281 43.4883 3.375C43.3711 3.09375 43.2773 2.8125 43.207 2.53125C43.1367 2.25 43.1016 1.99219 43.1016 1.75781C43.0781 1.5 43.1016 1.33594 43.1719 1.26562C43.2188 1.21875 43.6172 1.17188 44.3672 1.125C45.0938 1.07812 45.9961 1.03125 47.0742 0.984375C48.1523 0.9375 49.3125 0.902344 50.5547 0.878906C51.8203 0.855469 52.9922 0.84375 54.0703 0.84375C55.1484 0.84375 56.0508 0.867187 56.7773 0.914062C57.5273 0.9375 57.9258 0.984375 57.9727 1.05469ZM65.4609 7.83984C65.6484 7.95703 65.8242 8.19141 65.9883 8.54297C66.1758 8.87109 66.3398 9.25781 66.4805 9.70312C66.6445 10.125 66.7734 10.582 66.8672 11.0742C66.9844 11.5664 67.0781 12.0234 67.1484 12.4453C67.2422 12.8672 67.3008 13.2305 67.3242 13.5352C67.3477 13.8164 67.3477 13.9922 67.3242 14.0625C67.2773 14.1562 67.1367 14.25 66.9023 14.3438C66.6914 14.4375 66.375 14.543 65.9531 14.6602C65.5312 14.7773 64.9453 14.9062 64.1953 15.0469C64.1484 13.7578 64.0547 12.7852 63.9141 12.1289C63.7734 11.4492 63.6211 10.9688 63.457 10.6875C63.2695 10.3594 63.0703 10.1953 62.8594 10.1953C62.6484 10.2891 62.4609 10.4062 62.2969 10.5469C62.1328 10.6641 61.9922 10.793 61.875 10.9336C61.7344 11.0977 61.6055 11.2734 61.4883 11.4609C61.4414 11.5312 61.3945 11.6953 61.3477 11.9531C61.3008 12.2109 61.2539 12.5977 61.207 13.1133C61.207 13.2773 61.1953 13.6172 61.1719 14.1328C61.1719 14.6484 61.1602 15.2461 61.1367 15.9258C61.1367 16.6055 61.125 17.3203 61.1016 18.0703C61.1016 18.8203 61.0898 19.5234 61.0664 20.1797C61.0664 20.8125 61.0547 21.3516 61.0312 21.7969C61.0312 22.2422 61.0195 22.5 60.9961 22.5703C60.9492 22.6875 60.832 22.8516 60.6445 23.0625C60.457 23.2734 60.2461 23.4727 60.0117 23.6602C59.7773 23.8242 59.5547 23.9648 59.3438 24.082C59.1328 24.1758 58.9922 24.1641 58.9219 24.0469C58.8516 23.9766 58.7812 23.6719 58.7109 23.1328C58.6406 22.5938 58.5586 21.9375 58.4648 21.1641C58.3945 20.3672 58.3125 19.5 58.2188 18.5625C58.125 17.625 58.043 16.7227 57.9727 15.8555C57.9023 14.9883 57.8438 14.2148 57.7969 13.5352C57.75 12.832 57.7148 12.3281 57.6914 12.0234C57.668 11.5781 57.6445 11.0859 57.6211 10.5469C57.5977 10.0078 57.5742 9.50391 57.5508 9.03516C57.5508 8.54297 57.5508 8.12109 57.5508 7.76953C57.5742 7.39453 57.6211 7.17188 57.6914 7.10156C57.7383 7.03125 57.8906 7.01953 58.1484 7.06641C58.4297 7.08984 58.7227 7.16016 59.0273 7.27734C59.3555 7.37109 59.6602 7.5 59.9414 7.66406C60.2227 7.82812 60.4102 7.98047 60.5039 8.12109C60.5742 8.23828 60.6445 8.41406 60.7148 8.64844C61.1602 8.41406 61.582 8.20312 61.9805 8.01562C62.4023 7.80469 62.8008 7.65234 63.1758 7.55859C63.5742 7.46484 63.9609 7.44141 64.3359 7.48828C64.7109 7.51172 65.0859 7.62891 65.4609 7.83984ZM72.1406 11.8828C72.1875 12 72.2109 12.375 72.2109 13.0078C72.2344 13.6172 72.2344 14.3672 72.2109 15.2578C72.2109 16.125 72.1875 17.0625 72.1406 18.0703C72.0938 19.0547 72.0352 19.9922 71.9648 20.8828C71.918 21.75 71.8594 22.5 71.7891 23.1328C71.7188 23.7422 71.6484 24.1055 71.5781 24.2227C71.3672 24.5508 71.0508 24.7617 70.6289 24.8555C70.207 24.9258 69.9023 24.9375 69.7148 24.8906C69.6211 24.8906 69.5156 24.6211 69.3984 24.082C69.3047 23.543 69.2109 22.8633 69.1172 22.043C69.0234 21.2227 68.9414 20.332 68.8711 19.3711C68.8008 18.4102 68.7422 17.4961 68.6953 16.6289C68.6484 15.7383 68.625 14.9648 68.625 14.3086C68.625 13.6523 68.6484 13.2305 68.6953 13.043C68.7656 12.7383 68.9648 12.4688 69.293 12.2344C69.6445 12 70.0078 11.8242 70.3828 11.707C70.7812 11.5898 71.1445 11.543 71.4727 11.5664C71.8242 11.5664 72.0469 11.6719 72.1406 11.8828ZM72.3164 6.1875C72.4102 6.375 72.4453 6.63281 72.4219 6.96094C72.4219 7.28906 72.3867 7.62891 72.3164 7.98047C72.2461 8.33203 72.1523 8.67188 72.0352 9C71.918 9.32812 71.8008 9.58594 71.6836 9.77344C71.4492 10.1016 71.0977 10.3125 70.6289 10.4062C70.1836 10.4766 69.8555 10.4883 69.6445 10.4414C69.4805 10.418 69.3164 10.3125 69.1523 10.125C68.9883 9.91406 68.8477 9.66797 68.7305 9.38672C68.6133 9.08203 68.5312 8.75391 68.4844 8.40234C68.4375 8.05078 68.4492 7.72266 68.5195 7.41797C68.5898 7.11328 68.8125 6.84375 69.1875 6.60938C69.5625 6.35156 69.9609 6.16406 70.3828 6.04688C70.8047 5.90625 71.2031 5.84766 71.5781 5.87109C71.9531 5.87109 72.1992 5.97656 72.3164 6.1875ZM83.2852 5.51953C83.5195 5.66016 83.7422 5.91797 83.9531 6.29297C84.1875 6.64453 84.3984 7.06641 84.5859 7.55859C84.7734 8.02734 84.9258 8.54297 85.043 9.10547C85.1602 9.64453 85.2188 10.1602 85.2188 10.6523C85.2188 11.168 85.125 11.8828 84.9375 12.7969C84.7734 13.6875 84.5742 14.5898 84.3398 15.5039C84.1055 16.418 83.8828 17.2383 83.6719 17.9648C83.4609 18.6914 83.3203 19.125 83.25 19.2656C83.1094 19.8047 82.9219 20.1914 82.6875 20.4258C82.4531 20.6133 82.1367 20.7539 81.7383 20.8477C81.3633 20.918 80.9766 20.9648 80.5781 20.9883C80.1797 21.0117 79.793 21.0117 79.418 20.9883C79.043 20.9414 78.75 20.8828 78.5391 20.8125C78.5156 20.8125 78.4336 20.7891 78.293 20.7422C78.293 21.6797 78.2812 22.6406 78.2578 23.625C78.2344 24.4688 78.2109 25.418 78.1875 26.4727C78.1641 27.5039 78.1406 28.5469 78.1172 29.6016C78.0703 29.8125 77.9766 30.0586 77.8359 30.3398C77.7188 30.6211 77.5664 30.8789 77.3789 31.1133C77.1914 31.3711 76.9922 31.582 76.7812 31.7461C76.5938 31.9102 76.418 31.9688 76.2539 31.9219C76.1602 31.8984 76.0547 31.4883 75.9375 30.6914C75.8438 29.918 75.7383 28.8867 75.6211 27.5977C75.5273 26.332 75.4219 24.8789 75.3047 23.2383C75.1875 21.5977 75.082 19.9219 74.9883 18.2109C74.8945 16.5 74.8125 14.8242 74.7422 13.1836C74.6953 11.5195 74.6484 10.043 74.6016 8.75391C74.5781 7.44141 74.5781 6.375 74.6016 5.55469C74.625 4.71094 74.6836 4.25391 74.7773 4.18359C74.8477 4.11328 74.9883 4.125 75.1992 4.21875C75.4102 4.28906 75.6445 4.42969 75.9023 4.64062C76.1836 4.82813 76.4648 5.07422 76.7461 5.37891C77.0508 5.66016 77.3203 5.97656 77.5547 6.32812C78.7031 5.8125 79.793 5.44922 80.8242 5.23828C81.8555 5.02734 82.6758 5.12109 83.2852 5.51953ZM81.8086 10.6875C81.8086 10.3125 81.75 9.94922 81.6328 9.59766C81.5391 9.22266 81.4102 8.90625 81.2461 8.64844C81.082 8.36719 80.9062 8.15625 80.7188 8.01562C80.5547 7.85156 80.4023 7.79297 80.2617 7.83984C79.6758 7.98047 79.1836 8.14453 78.7852 8.33203C78.5742 8.42578 78.3984 8.53125 78.2578 8.64844C78.3047 9.39844 78.3281 10.4297 78.3281 11.7422C78.3516 13.0312 78.3633 14.4492 78.3633 15.9961C78.3633 16.6758 78.3867 17.1328 78.4336 17.3672C78.457 17.9297 78.5977 18.3164 78.8555 18.5273C78.9258 18.5977 79.0312 18.6797 79.1719 18.7734C79.3125 18.8438 79.4648 18.9141 79.6289 18.9844C79.793 19.0312 79.957 19.0664 80.1211 19.0898C80.2852 19.0898 80.4258 19.043 80.543 18.9492C80.5664 18.9258 80.6133 18.7148 80.6836 18.3164C80.7773 17.8945 80.8711 17.3906 80.9648 16.8047C81.0586 16.1953 81.1523 15.5508 81.2461 14.8711C81.3633 14.168 81.457 13.5234 81.5273 12.9375C81.6211 12.3281 81.6914 11.8125 81.7383 11.3906C81.7852 10.9688 81.8086 10.7344 81.8086 10.6875Z" fill="#766A6A"/>
</svg>
